<svg xmlns="http://www.w3.org/2000/svg" width="160" height="160" viewBox="0 0 160 160" role="img" aria-label="Expected raster for the transforms visual validation test">
	<rect x="0" y="0" width="160" height="160" fill="#ffffff"/>
	<g shape-rendering="crispEdges">
		<rect x="40" y="20" width="20" height="20" fill="#e53935"/>
		<rect x="60" y="20" width="20" height="20" fill="#e53935"/>
		<rect x="40" y="40" width="20" height="20" fill="#e53935"/>
		<rect x="60" y="40" width="20" height="20" fill="#e53935"/>
		<rect x="120" y="80" width="20" height="20" fill="#2f80ed"/>
		<rect x="140" y="80" width="20" height="20" fill="#2f80ed"/>
		<rect x="120" y="100" width="20" height="20" fill="#2f80ed"/>
		<rect x="140" y="100" width="20" height="20" fill="#2f80ed"/>
		<rect x="120" y="120" width="20" height="20" fill="#2f80ed"/>
		<rect x="140" y="120" width="20" height="20" fill="#2f80ed"/>
		<rect x="120" y="140" width="20" height="20" fill="#2f80ed"/>
		<rect x="140" y="140" width="20" height="20" fill="#2f80ed"/>
	</g>
	<g fill="none" stroke="#d0d5dd" stroke-width="1">
		<path d="M20 0 V160 M40 0 V160 M60 0 V160 M80 0 V160 M100 0 V160 M120 0 V160 M140 0 V160"/>
		<path d="M0 20 H160 M0 40 H160 M0 60 H160 M0 80 H160 M0 100 H160 M0 120 H160 M0 140 H160"/>
		<rect x="0.5" y="0.5" width="159" height="159"/>
	</g>
</svg>
