<svg xmlns="http://www.w3.org/2000/svg" viewBox="0 0 720 480">
	<defs>
		<linearGradient id="sky" x1="0" y1="0" x2="1" y2="1" gradientUnits="objectBoundingBox">
			<stop offset="0" stop-color="#38bdf8"/>
			<stop offset="0.55" stop-color="#818cf8"/>
			<stop offset="1" stop-color="#ec4899"/>
		</linearGradient>
		<radialGradient id="sun" cx="50%" cy="45%" r="55%" fx="35%" fy="30%">
			<stop offset="0" stop-color="#fef08a"/>
			<stop offset="0.55" stop-color="#f97316"/>
			<stop offset="1" stop-color="#be123c" stop-opacity="0.95"/>
		</radialGradient>
		<linearGradient id="stripe" x1="0" y1="0" x2="80" y2="0" gradientUnits="userSpaceOnUse" spreadMethod="repeat" gradientTransform="rotate(14)">
			<stop offset="0" stop-color="#ffffff" stop-opacity="0.15"/>
			<stop offset="0.45" stop-color="#ffffff" stop-opacity="0.15"/>
			<stop offset="0.45" stop-color="#0f172a" stop-opacity="0.08"/>
			<stop offset="1" stop-color="#0f172a" stop-opacity="0.08"/>
		</linearGradient>
		<pattern id="confetti" x="0" y="0" width="34" height="34" patternUnits="userSpaceOnUse" patternContentUnits="userSpaceOnUse">
			<rect width="34" height="34" fill="#f8fafc"/>
			<circle cx="8" cy="9" r="4" fill="#22c55e"/>
			<rect x="20" y="5" width="7" height="7" rx="2" fill="#f97316"/>
			<path d="M12 25 L22 18 L25 28 Z" fill="#3b82f6"/>
		</pattern>
	</defs>
	<rect width="720" height="480" fill="#f8fafc"/>
	<rect x="54" y="54" width="612" height="330" rx="42" fill="url(#sky)"/>
	<rect x="54" y="54" width="612" height="330" rx="42" fill="url(#stripe)"/>
	<circle cx="226" cy="204" r="88" fill="url(#sun)"/>
	<path d="M100 330 C165 240 226 285 286 220 S425 134 492 260 S592 256 635 188" fill="none" stroke="#ffffff" stroke-width="24" stroke-linecap="round" opacity="0.7"/>
	<rect x="430" y="260" width="160" height="118" rx="28" fill="url(#confetti)" stroke="#ffffff" stroke-width="8"/>
</svg>
